<svg id="eKXjE85obBC1" xmlns="http://www.w3.org/2000/svg" xmlns:xlink="http://www.w3.org/1999/xlink" viewBox="0 0 300 300" shape-rendering="geometricPrecision" text-rendering="geometricPrecision" project-id="3441ca373fc3454eb5c951f804f361a7" export-id="168ca750751a48698d49462b66b7d9b3" cached="false"><g transform="matrix(6.266119 0 0 6.216556-556.41177-660.658276)"><path d="M88.944027,123.963838l33.678276,25.500122h13.831157l.037129-3.641708c0,0-.037129-9.108852-.037129-9.108852s-8.298908-12.749563-.000001-12.749563c5.771117.000008-17.42431.000001-17.42431.000001L136.45346,136.7134h-13.823368L88.884186,111.12835l.059841,12.835488Z" transform="translate(-.087309 0.106958)" fill="#fff" stroke-width="0.6" stroke-linejoin="round"/><path d="M105.636296,108.113647l13.330261,16.422005c0,0,11.195515,0,19.941081,0c6.206016,0,4.325199-16.422006-9.941375-16.422006-7.731905-.000001-23.329967.000001-23.329967.000001Z" transform="matrix(.654333 0 0 0.3563 34.554958 75.172979)" fill="#fff" stroke-width="0.6" stroke-linejoin="bevel"/></g></svg>
